<?xml version="1.0" encoding="UTF-8" standalone="no"?><!DOCTYPE svg PUBLIC "-//W3C//DTD SVG 1.1//EN" "http://www.w3.org/Graphics/SVG/1.1/DTD/svg11.dtd"><svg width="100%" height="100%" viewBox="0 0 2048 2048" version="1.1" xmlns="http://www.w3.org/2000/svg" xmlns:xlink="http://www.w3.org/1999/xlink" xml:space="preserve" xmlns:serif="http://www.serif.com/" style="fill-rule:evenodd;clip-rule:evenodd;stroke-linejoin:round;stroke-miterlimit:2;"><rect x="0" y="0" width="2048" height="2048" style="fill:#008450;"/><path d="M1448.14,527.309c-3.458,-10.459 -5.329,-21.637 -5.329,-33.249c0,-58.496 47.491,-105.988 105.988,-105.988c58.496,0 105.988,47.492 105.988,105.988c0,55.384 -42.573,100.904 -96.748,105.59l-76.386,116.006l0,611.161l72.805,122.131c51.609,7.109 91.414,51.439 91.414,104.992c0,58.496 -47.492,105.988 -105.988,105.988c-58.496,0 -105.988,-47.492 -105.988,-105.988c0,-13.501 2.53,-26.416 7.143,-38.301l-26.786,-44.933l-723.898,0l-74.653,46.061c-7.59,51.076 -51.667,90.309 -104.834,90.309c-58.496,0 -105.988,-47.492 -105.988,-105.988c0,-58.496 47.492,-105.988 105.988,-105.988c13.87,0 27.12,2.67 39.265,7.523l543.158,-335.124l-392.376,-322.499l0,351.336l-2.216,0c25.752,19.346 42.418,50.138 42.418,84.791c0,58.496 -47.491,105.988 -105.988,105.988c-58.496,0 -105.988,-47.492 -105.988,-105.988c0,-34.653 16.667,-65.445 42.418,-84.791l-2.215,0l0,-459.476l-47.692,-39.198c-7.239,1.564 -14.747,2.386 -22.445,2.386c-58.496,0 -105.988,-47.492 -105.988,-105.988c0,-58.496 47.492,-105.988 105.988,-105.988c58.497,0 105.988,47.492 105.988,105.988c0,0.649 -0.006,1.297 -0.018,1.943l80.018,65.768l740.253,0l22.692,-34.462Zm91.744,986.429c22.188,0 40.202,18.014 40.202,40.202c0,22.188 -18.014,40.202 -40.202,40.202c-22.188,0 -40.202,-18.014 -40.202,-40.202c0,-22.188 18.014,-40.202 40.202,-40.202Zm-1029.02,-52.852c22.188,0 40.202,18.014 40.202,40.202c0,22.188 -18.014,40.202 -40.202,40.202c-22.188,0 -40.202,-18.014 -40.202,-40.202c0,-22.188 18.014,-40.202 40.202,-40.202Zm392.734,-121.751l432.219,0l-116.224,-194.967l-315.995,194.967Zm-268.473,-198.211c22.188,0 40.203,18.015 40.203,40.203c0,22.188 -18.015,40.202 -40.203,40.202c-22.188,0 -40.202,-18.014 -40.202,-40.202c0,-22.188 18.014,-40.203 40.202,-40.203Zm655.31,-134.871l59.643,100.051l0,-190.631l-59.643,90.58Zm-445.164,-312.711l320.231,263.202l173.307,-263.202l-493.538,0Zm-346.068,-239.484c22.188,0 40.203,18.014 40.203,40.202c0,22.188 -18.015,40.202 -40.203,40.202c-22.188,0 -40.202,-18.014 -40.202,-40.202c0,-22.188 18.014,-40.202 40.202,-40.202Zm1049.59,0c22.188,0 40.202,18.014 40.202,40.202c0,22.188 -18.014,40.202 -40.202,40.202c-22.188,0 -40.203,-18.014 -40.203,-40.202c0,-22.188 18.015,-40.202 40.203,-40.202Z" style="fill:#fff;"/></svg>