<?xml version="1.0" encoding="UTF-8" standalone="no" ?>
<!DOCTYPE svg PUBLIC "-//W3C//DTD SVG 1.1//EN" "http://www.w3.org/Graphics/SVG/1.1/DTD/svg11.dtd">
<svg width="100%" height="100%" viewBox="0 0 2048 2048" version="1.1" xmlns="http://www.w3.org/2000/svg" xmlns:xlink="http://www.w3.org/1999/xlink" xml:space="preserve" xmlns:serif="http://www.serif.com/" style="fill-rule:evenodd;clip-rule:evenodd;stroke-linejoin:round;stroke-miterlimit:2;">
    <rect x="0" y="0" width="2048" height="2048" style="fill:#008450;" />
    <path d="M1404.12,578.858c-3.099,-9.373 -4.776,-19.391 -4.776,-29.798c0,-52.425 42.562,-94.988 94.988,-94.988c52.425,0 94.988,42.563 94.988,94.988c0,49.636 -38.155,90.432 -86.707,94.631l-68.458,103.967l0,547.731l65.249,109.456c46.252,6.371 81.926,46.1 81.926,94.095c0,52.425 -42.563,94.988 -94.988,94.988c-52.425,0 -94.988,-42.563 -94.988,-94.988c0,-12.1 2.268,-23.674 6.402,-34.326l-24.006,-40.27l-648.768,0l-66.905,41.281c-6.803,45.775 -46.305,80.936 -93.954,80.936c-52.425,0 -94.988,-42.563 -94.988,-94.988c0,-52.425 42.563,-94.988 94.988,-94.988c12.43,0 24.305,2.393 35.19,6.742l486.786,-300.343l-351.653,-289.028l0,314.873l-1.986,0c23.079,17.338 38.015,44.934 38.015,75.991c0,52.424 -42.562,94.988 -94.988,94.988c-52.425,0 -94.988,-42.564 -94.988,-94.988c0,-31.057 14.938,-58.653 38.016,-75.991l-1.985,0l0,-411.79l-42.742,-35.129c-6.488,1.401 -13.217,2.138 -20.116,2.138c-52.425,0 -94.988,-42.563 -94.988,-94.988c0,-52.425 42.563,-94.988 94.988,-94.988c52.426,0 94.988,42.563 94.988,94.988c0,0.582 -0.005,1.162 -0.016,1.741l71.713,58.943l663.426,0l20.337,-30.886Zm82.222,884.052c19.885,0 36.03,16.145 36.03,36.03c0,19.885 -16.145,36.03 -36.03,36.03c-19.885,0 -36.03,-16.145 -36.03,-36.03c0,-19.885 16.145,-36.03 36.03,-36.03Zm-922.223,-47.366c19.886,0 36.03,16.144 36.03,36.029c0,19.885 -16.144,36.03 -36.03,36.03c-19.885,0 -36.029,-16.145 -36.029,-36.03c0,-19.885 16.144,-36.029 36.029,-36.029Zm351.974,-109.115l387.361,0l-104.161,-174.733l-283.2,174.733Zm-240.609,-177.64c19.885,0 36.03,16.145 36.03,36.031c0,19.885 -16.145,36.029 -36.03,36.029c-19.885,0 -36.03,-16.144 -36.03,-36.029c0,-19.886 16.145,-36.031 36.03,-36.031Zm587.298,-120.873l53.453,89.667l0,-170.846l-53.453,81.179Zm-398.962,-280.257l286.995,235.886l155.321,-235.886l-442.316,0Zm-310.151,-214.629c19.885,0 36.03,16.145 36.03,36.03c0,19.885 -16.145,36.03 -36.03,36.03c-19.886,0 -36.03,-16.145 -36.03,-36.03c0,-19.885 16.144,-36.03 36.03,-36.03Zm940.657,0c19.886,0 36.03,16.145 36.03,36.03c0,19.885 -16.144,36.03 -36.03,36.03c-19.885,0 -36.03,-16.145 -36.03,-36.03c0,-19.885 16.145,-36.03 36.03,-36.03Z" style="fill:#fff;" />
</svg>