<?xml version="1.0" encoding="UTF-8" standalone="no"?><!DOCTYPE svg PUBLIC "-//W3C//DTD SVG 1.1//EN" "http://www.w3.org/Graphics/SVG/1.1/DTD/svg11.dtd"><svg width="100%" height="100%" viewBox="0 0 8534 8534" version="1.1" xmlns="http://www.w3.org/2000/svg" xmlns:xlink="http://www.w3.org/1999/xlink" xml:space="preserve" xmlns:serif="http://www.serif.com/" style="fill-rule:evenodd;clip-rule:evenodd;stroke-linejoin:round;stroke-miterlimit:2;"><rect x="0" y="0" width="8533.33" height="8533.33" style="fill:#008450;"/><path d="M6033.9,2197.12c-14.407,-43.58 -22.204,-90.155 -22.204,-138.536c0,-243.735 197.882,-441.617 441.617,-441.617c243.735,0 441.616,197.882 441.616,441.617c0,230.768 -177.387,420.432 -403.116,439.956l-318.272,483.359l0,2546.51l303.353,508.879c215.038,29.619 380.89,214.327 380.89,437.466c0,243.735 -197.881,441.616 -441.616,441.616c-243.735,0 -441.617,-197.881 -441.617,-441.616c0,-56.254 10.541,-110.066 29.762,-159.586l-111.607,-187.223l-3016.24,0l-311.057,191.919c-31.625,212.82 -215.277,376.29 -436.807,376.29c-243.735,0 -441.617,-197.882 -441.617,-441.617c0,-243.734 197.882,-441.616 441.617,-441.616c57.789,0 113.001,11.124 163.602,31.345l2263.16,-1396.35l-1634.9,-1343.74l0,1463.9l-9.231,0c107.296,80.608 176.741,208.905 176.741,353.294c0,243.735 -197.882,441.616 -441.617,441.616c-243.735,0 -441.617,-197.881 -441.617,-441.616c0,-144.389 69.445,-272.686 176.741,-353.294l-9.231,0l0,-1914.48l-198.715,-163.326c-30.163,6.514 -61.444,9.941 -93.519,9.941c-243.735,0 -441.617,-197.882 -441.617,-441.616c0,-243.735 197.882,-441.617 441.617,-441.617c243.734,0 441.616,197.882 441.616,441.617c0,2.705 -0.024,5.405 -0.074,8.097l333.408,274.032l3084.39,0l94.55,-143.593Zm382.268,4110.12c92.451,0 167.509,75.059 167.509,167.51c0,92.451 -75.058,167.51 -167.509,167.51c-92.451,0 -167.51,-75.059 -167.51,-167.51c0,-92.451 75.059,-167.51 167.51,-167.51Zm-4287.57,-220.216c92.451,0 167.509,75.058 167.509,167.509c0,92.452 -75.058,167.51 -167.509,167.51c-92.452,0 -167.51,-75.058 -167.51,-167.51c0,-92.451 75.058,-167.509 167.51,-167.509Zm1636.39,-507.297l1800.91,0l-484.265,-812.361l-1316.65,812.361Zm-1118.64,-825.875c92.451,0 167.51,75.059 167.51,167.51c0,92.451 -75.059,167.51 -167.51,167.51c-92.451,0 -167.51,-75.059 -167.51,-167.51c0,-92.451 75.059,-167.51 167.51,-167.51Zm2730.46,-561.966l248.512,416.882l0,-794.297l-248.512,377.415Zm-1854.85,-1302.96l1334.3,1096.67l722.114,-1096.67l-2056.41,0Zm-1441.95,-997.852c92.451,0 167.509,75.058 167.509,167.51c0,92.451 -75.058,167.509 -167.509,167.509c-92.452,0 -167.51,-75.058 -167.51,-167.509c0,-92.452 75.058,-167.51 167.51,-167.51Zm4373.3,0c92.451,0 167.51,75.058 167.51,167.51c0,92.451 -75.059,167.509 -167.51,167.509c-92.451,0 -167.51,-75.058 -167.51,-167.509c0,-92.452 75.059,-167.51 167.51,-167.51Z" style="fill:#fff;"/></svg>
