<?xml version="1.0" encoding="UTF-8" standalone="no"?>
<!DOCTYPE svg PUBLIC "-//W3C//DTD SVG 1.1//EN" "http://www.w3.org/Graphics/SVG/1.1/DTD/svg11.dtd">
<svg width="100%" height="100%" viewBox="0 0 64 64" version="1.1" xmlns="http://www.w3.org/2000/svg" xmlns:xlink="http://www.w3.org/1999/xlink" xml:space="preserve" xmlns:serif="http://www.serif.com/" style="fill-rule:evenodd;clip-rule:evenodd;stroke-linejoin:round;stroke-miterlimit:2;">
    <g transform="matrix(3.41558,0,0,5.2,-48.8966,-33)">
        <rect x="12.266" y="5" width="22.837" height="15" style="fill:rgb(0,132,80);"/>
    </g>
    <g transform="matrix(0.689655,0,0,0.689655,9.93103,9.93103)">
        <path d="M9.091,12.558C8.761,12.629 8.419,12.667 8.068,12.667C5.4,12.667 3.235,10.501 3.235,7.833C3.235,5.166 5.4,3 8.068,3C10.736,3 12.901,5.166 12.901,7.833C12.901,7.863 12.901,7.892 12.9,7.922L16.549,10.921L50.307,10.921L51.342,9.35C51.184,8.873 51.099,8.363 51.099,7.833C51.099,5.166 53.264,3 55.932,3C58.6,3 60.765,5.166 60.765,7.833C60.765,10.359 58.824,12.435 56.353,12.648L52.87,17.939L52.87,45.809L56.19,51.379C58.544,51.703 60.359,53.725 60.359,56.167C60.359,58.834 58.193,61 55.526,61C52.858,61 50.692,58.834 50.692,56.167C50.692,55.551 50.808,54.962 51.018,54.42L49.796,52.371L16.785,52.371L13.38,54.471C13.034,56.801 11.024,58.59 8.6,58.59C5.932,58.59 3.766,56.424 3.766,53.756C3.766,51.089 5.932,48.923 8.6,48.923C9.232,48.923 9.836,49.045 10.39,49.266L35.16,33.984L17.266,19.277L17.266,35.377C18.383,36.262 19.1,37.631 19.1,39.165C19.1,41.833 16.934,43.999 14.266,43.999C11.599,43.999 9.433,41.833 9.433,39.165C9.433,37.631 10.15,36.262 11.266,35.377L11.266,14.345L9.091,12.558ZM55.526,54.167C56.629,54.167 57.526,55.063 57.526,56.167C57.526,57.27 56.629,58.167 55.526,58.167C54.422,58.167 53.526,57.27 53.526,56.167C53.526,55.063 54.422,54.167 55.526,54.167ZM8.6,51.756C9.704,51.756 10.6,52.653 10.6,53.756C10.6,54.86 9.704,55.756 8.6,55.756C7.496,55.756 6.6,54.86 6.6,53.756C6.6,52.653 7.496,51.756 8.6,51.756ZM26.509,46.371L46.22,46.371L40.92,37.48L26.509,46.371ZM14.266,37.165C15.37,37.165 16.266,38.062 16.266,39.165C16.266,40.269 15.37,41.165 14.266,41.165C13.162,41.165 12.266,40.269 12.266,39.165C12.266,38.062 13.162,37.165 14.266,37.165ZM44.15,31.182L46.87,35.744L46.87,27.051L44.15,31.182ZM46.356,16.921L23.85,16.921L38.453,28.924L46.356,16.921ZM55.932,5.833C57.036,5.833 57.932,6.73 57.932,7.833C57.932,8.937 57.036,9.833 55.932,9.833C54.828,9.833 53.932,8.937 53.932,7.833C53.932,6.73 54.828,5.833 55.932,5.833ZM8.068,5.833C9.172,5.833 10.068,6.73 10.068,7.833C10.068,8.937 9.172,9.833 8.068,9.833C6.964,9.833 6.068,8.937 6.068,7.833C6.068,6.73 6.964,5.833 8.068,5.833Z" style="fill:white;"/>
    </g>
</svg>
