<?xml version="1.0" encoding="UTF-8" standalone="no" ?>
<!DOCTYPE svg PUBLIC "-//W3C//DTD SVG 1.1//EN" "http://www.w3.org/Graphics/SVG/1.1/DTD/svg11.dtd">
<svg width="6rem" height="100%" viewBox="0 0 64 64" version="1.1" xmlns="http://www.w3.org/2000/svg" xmlns:xlink="http://www.w3.org/1999/xlink" xml:space="preserve" style="fill-rule:evenodd;clip-rule:evenodd;stroke-linejoin:bevel;stroke-miterlimit:1.5;">
    <g>
        <path d="M52.37,51.871l-36.436,0l0,-5l31.436,0l0,-30.45l-30.604,0l0,18.878l-5,0l0,-23.878l40.604,0l0,40.45Z" style="fill:#008450;" />
        <path d="M10.841,52.513l31.044,-19.154" style="fill:none;stroke:#008450;stroke-width:5px;" />
        <path d="M10.835,10.107l29.473,24.225" style="fill:none;stroke:#008450;stroke-width:5px;" />
        <path d="M39.124,33.359l15.311,-23.252" style="fill:none;stroke:#008450;stroke-width:5px;stroke-linejoin:round;" />
        <path d="M54.115,53.756l-13.505,-22.654" style="fill:none;stroke:#008450;stroke-width:5px;" />
        <path d="M8.13,3l0.063,0.002l0.062,0.002l0.061,0.002l0.124,0.008l0.122,0.011l0.121,0.014l0.121,0.017l0.119,0.02l0.118,0.022l0.118,0.026l0.116,0.028l0.115,0.031l0.115,0.034l0.112,0.037l0.112,0.039l0.11,0.042l0.11,0.045l0.107,0.047l0.107,0.05l0.105,0.052l0.103,0.055l0.102,0.057l0.1,0.059l0.099,0.062l0.097,0.064l0.096,0.066l0.094,0.069l0.092,0.07l0.091,0.073l0.088,0.075l0.087,0.077l0.085,0.079l0.083,0.081l0.081,0.083l0.079,0.085l0.077,0.087l0.075,0.089l0.073,0.09l0.071,0.092l0.068,0.094l0.066,0.096l0.064,0.097l0.062,0.099l0.06,0.1l0.057,0.102l0.054,0.104l0.052,0.105l0.05,0.106l0.047,0.108l0.045,0.109l0.042,0.11l0.039,0.112l0.037,0.113l0.034,0.114l0.031,0.115l0.028,0.116l0.026,0.118l0.023,0.118l0.02,0.12l0.016,0.12l0.014,0.121l0.011,0.123l0.008,0.123l0.003,0.062l0.002,0.062l0.001,0.062l0,0.062l0,0.063l-0.001,0.062l-0.002,0.062l-0.003,0.062l-0.004,0.062l-0.004,0.061l-0.005,0.061l-0.006,0.061l-0.006,0.061l-0.008,0.061l-0.008,0.06l-0.008,0.06l-0.01,0.06l-0.01,0.059l-0.011,0.06l-0.012,0.059l-0.012,0.059l-0.014,0.058l-0.028,0.117l-0.031,0.115l-0.034,0.114l-0.037,0.113l-0.039,0.111l-0.042,0.111l-0.045,0.109l-0.047,0.108l-0.05,0.106l-0.052,0.105l-0.054,0.103l-0.057,0.102l-0.06,0.101l-0.062,0.099l-0.064,0.097l-0.066,0.096l-0.068,0.093l-0.071,0.093l-0.073,0.09l-0.075,0.089l-0.077,0.086l-0.079,0.085l-0.081,0.083l-0.083,0.081l-0.085,0.079l-0.087,0.077l-0.088,0.075l-0.091,0.073l-0.092,0.071l-0.094,0.068l-0.096,0.067l-0.097,0.064l-0.099,0.062l-0.1,0.059l-0.102,0.057l-0.103,0.055l-0.105,0.052l-0.107,0.049l-0.107,0.048l-0.11,0.044l-0.11,0.042l-0.112,0.04l-0.112,0.036l-0.115,0.034l-0.115,0.031l-0.116,0.029l-0.059,0.013l-0.059,0.012l-0.059,0.012l-0.059,0.011l-0.06,0.01l-0.059,0.01l-0.061,0.009l-0.06,0.008l-0.06,0.007l-0.061,0.007l-0.061,0.006l-0.061,0.005l-0.062,0.004l-0.062,0.003l-0.061,0.003l-0.062,0.002l-0.063,0.001l-0.062,0.001l-0.063,-0.001l-0.062,-0.001l-0.062,-0.002l-0.062,-0.003l-0.061,-0.003l-0.062,-0.004l-0.061,-0.005l-0.061,-0.006l-0.061,-0.007l-0.06,-0.007l-0.061,-0.008l-0.06,-0.009l-0.06,-0.01l-0.059,-0.01l-0.06,-0.011l-0.059,-0.012l-0.058,-0.012l-0.059,-0.013l-0.116,-0.029l-0.116,-0.031l-0.114,-0.034l-0.113,-0.036l-0.111,-0.04l-0.111,-0.042l-0.109,-0.044l-0.107,-0.048l-0.107,-0.049l-0.105,-0.052l-0.103,-0.055l-0.102,-0.057l-0.101,-0.059l-0.098,-0.062l-0.098,-0.064l-0.095,-0.067l-0.094,-0.068l-0.092,-0.071l-0.091,-0.073l-0.088,-0.075l-0.087,-0.077l-0.085,-0.079l-0.083,-0.081l-0.081,-0.083l-0.079,-0.085l-0.077,-0.086l-0.075,-0.089l-0.073,-0.09l-0.071,-0.093l-0.068,-0.093l-0.066,-0.096l-0.065,-0.097l-0.061,-0.099l-0.06,-0.101l-0.057,-0.102l-0.054,-0.103l-0.052,-0.105l-0.05,-0.106l-0.047,-0.108l-0.045,-0.109l-0.042,-0.111l-0.039,-0.111l-0.037,-0.113l-0.034,-0.114l-0.031,-0.115l-0.029,-0.117l-0.013,-0.058l-0.012,-0.059l-0.012,-0.059l-0.011,-0.06l-0.01,-0.059l-0.01,-0.06l-0.008,-0.06l-0.009,-0.06l-0.007,-0.061l-0.006,-0.061l-0.006,-0.061l-0.005,-0.061l-0.005,-0.061l-0.003,-0.062l-0.003,-0.062l-0.002,-0.062l-0.001,-0.062l0,-0.063l0,-0.062l0.001,-0.062l0.002,-0.062l0.003,-0.062l0.003,-0.062l0.005,-0.061l0.005,-0.062l0.006,-0.061l0.006,-0.06l0.007,-0.061l0.009,-0.06l0.008,-0.06l0.01,-0.06l0.01,-0.06l0.011,-0.059l0.012,-0.059l0.012,-0.059l0.013,-0.059l0.029,-0.116l0.031,-0.115l0.034,-0.114l0.037,-0.113l0.039,-0.112l0.042,-0.11l0.045,-0.109l0.047,-0.108l0.05,-0.106l0.052,-0.105l0.054,-0.104l0.057,-0.102l0.06,-0.1l0.061,-0.099l0.065,-0.097l0.066,-0.096l0.068,-0.094l0.071,-0.092l0.073,-0.09l0.075,-0.089l0.077,-0.087l0.079,-0.085l0.081,-0.083l0.083,-0.081l0.085,-0.079l0.087,-0.077l0.088,-0.075l0.091,-0.073l0.092,-0.07l0.094,-0.069l0.095,-0.066l0.098,-0.064l0.098,-0.062l0.101,-0.059l0.102,-0.057l0.103,-0.055l0.105,-0.052l0.107,-0.05l0.107,-0.047l0.109,-0.045l0.111,-0.042l0.111,-0.039l0.113,-0.037l0.114,-0.034l0.116,-0.031l0.116,-0.028l0.059,-0.013l0.058,-0.013l0.059,-0.011l0.06,-0.011l0.059,-0.011l0.06,-0.009l0.06,-0.009l0.061,-0.008l0.06,-0.007l0.061,-0.007l0.061,-0.006l0.061,-0.005l0.062,-0.004l0.061,-0.004l0.062,-0.002l0.062,-0.002l0.062,-0.002l0.063,0l0.062,0Zm-0.086,3l-0.025,0.001l-0.024,0l-0.024,0.001l-0.023,0.002l-0.024,0.001l-0.023,0.002l-0.023,0.003l-0.024,0.002l-0.023,0.003l-0.022,0.003l-0.023,0.003l-0.023,0.004l-0.022,0.004l-0.022,0.004l-0.023,0.004l-0.022,0.005l-0.012,0.003l-0.053,0.013l-0.043,0.011l-0.043,0.013l-0.042,0.014l-0.042,0.015l-0.041,0.015l-0.041,0.017l-0.041,0.018l-0.04,0.018l-0.039,0.02l-0.039,0.021l-0.039,0.021l-0.038,0.023l-0.038,0.023l-0.037,0.025l-0.036,0.025l-0.036,0.026l-0.035,0.027l-0.035,0.028l-0.034,0.029l-0.033,0.029l-0.033,0.031l-0.032,0.031l-0.031,0.032l-0.03,0.032l-0.03,0.034l-0.028,0.033l-0.028,0.035l-0.027,0.035l-0.026,0.036l-0.026,0.037l-0.024,0.037l-0.024,0.037l-0.022,0.038l-0.022,0.039l-0.02,0.039l-0.02,0.04l-0.019,0.04l-0.017,0.04l-0.017,0.041l-0.016,0.041l-0.015,0.042l-0.013,0.042l-0.013,0.043l-0.012,0.043l-0.013,0.053l-0.002,0.013l-0.005,0.022l-0.005,0.022l-0.004,0.022l-0.004,0.023l-0.003,0.022l-0.003,0.023l-0.003,0.023l-0.003,0.023l-0.003,0.023l-0.002,0.023l-0.002,0.024l-0.002,0.023l-0.001,0.024l-0.001,0.024l-0.001,0.024l0,0.024l0,0.024l0.002,0.097l0.007,0.094l0.012,0.091l0.016,0.09l0.007,0.035l0.013,0.052l0.012,0.044l0.013,0.042l0.013,0.042l0.031,0.084l0.034,0.081l0.039,0.08l0.042,0.077l0.046,0.076l0.05,0.073l0.053,0.072l0.056,0.068l0.06,0.066l0.063,0.063l0.066,0.06l0.069,0.056l0.071,0.054l0.073,0.049l0.076,0.046l0.078,0.043l0.079,0.038l0.082,0.034l0.083,0.031l0.042,0.014l0.043,0.012l0.043,0.012l0.087,0.02l0.09,0.016l0.092,0.012l0.093,0.007l0.097,0.003l0.024,-0.001l0.025,0l0.024,-0.001l0.023,-0.001l0.024,-0.001l0.024,-0.002l0.023,-0.002l0.023,-0.002l0.023,-0.002l0.023,-0.003l0.023,-0.003l0.023,-0.004l0.022,-0.003l0.023,-0.004l0.022,-0.004l0.022,-0.005l0.023,-0.004l0.012,-0.003l0.053,-0.013l0.043,-0.012l0.043,-0.012l0.042,-0.014l0.042,-0.015l0.041,-0.016l0.041,-0.016l0.041,-0.018l0.04,-0.019l0.039,-0.019l0.039,-0.021l0.039,-0.022l0.038,-0.022l0.038,-0.024l0.037,-0.024l0.036,-0.025l0.036,-0.026l0.035,-0.028l0.035,-0.027l0.034,-0.029l0.033,-0.03l0.033,-0.03l0.031,-0.031l0.032,-0.032l0.03,-0.033l0.029,-0.033l0.029,-0.034l0.028,-0.034l0.027,-0.036l0.026,-0.036l0.026,-0.036l0.024,-0.037l0.023,-0.038l0.023,-0.038l0.022,-0.038l0.02,-0.039l0.02,-0.04l0.019,-0.04l0.017,-0.04l0.017,-0.041l0.016,-0.042l0.014,-0.042l0.014,-0.042l0.013,-0.042l0.012,-0.044l0.012,-0.052l0.003,-0.013l0.005,-0.022l0.004,-0.022l0.004,-0.023l0.004,-0.022l0.004,-0.023l0.003,-0.022l0.003,-0.023l0.003,-0.023l0.003,-0.023l0.002,-0.024l0.002,-0.023l0.001,-0.023l0.002,-0.024l0.001,-0.024l0.001,-0.024l0,-0.024l0,-0.025l0,-0.024l0,-0.024l-0.001,-0.024l-0.001,-0.024l-0.002,-0.024l-0.001,-0.023l-0.002,-0.024l-0.002,-0.023l-0.003,-0.023l-0.003,-0.023l-0.003,-0.023l-0.003,-0.023l-0.004,-0.022l-0.004,-0.023l-0.004,-0.022l-0.004,-0.022l-0.005,-0.022l-0.003,-0.013l-0.012,-0.053l-0.012,-0.043l-0.013,-0.043l-0.014,-0.042l-0.014,-0.042l-0.016,-0.041l-0.017,-0.041l-0.017,-0.04l-0.019,-0.04l-0.02,-0.04l-0.021,-0.039l-0.021,-0.039l-0.023,-0.038l-0.023,-0.037l-0.024,-0.037l-0.026,-0.037l-0.026,-0.036l-0.027,-0.035l-0.028,-0.035l-0.029,-0.033l-0.029,-0.034l-0.03,-0.032l-0.032,-0.032l-0.031,-0.031l-0.033,-0.031l-0.033,-0.029l-0.034,-0.029l-0.035,-0.028l-0.035,-0.027l-0.036,-0.026l-0.036,-0.025l-0.037,-0.025l-0.038,-0.023l-0.038,-0.023l-0.039,-0.021l-0.039,-0.021l-0.039,-0.02l-0.04,-0.018l-0.041,-0.018l-0.041,-0.017l-0.041,-0.015l-0.042,-0.015l-0.042,-0.014l-0.043,-0.013l-0.043,-0.011l-0.053,-0.013l-0.012,-0.003l-0.023,-0.005l-0.022,-0.004l-0.022,-0.004l-0.023,-0.004l-0.022,-0.004l-0.023,-0.003l-0.023,-0.003l-0.023,-0.003l-0.023,-0.002l-0.023,-0.003l-0.023,-0.002l-0.024,-0.001l-0.024,-0.002l-0.023,-0.001l-0.024,0l-0.025,-0.001l-0.024,0l-0.024,0Z" style="fill:#008450;" />
        <path d="M55.995,3l0.062,0.002l0.062,0.002l0.062,0.002l0.123,0.008l0.122,0.011l0.121,0.014l0.121,0.017l0.119,0.02l0.119,0.022l0.117,0.026l0.116,0.028l0.116,0.031l0.114,0.034l0.113,0.037l0.111,0.039l0.111,0.042l0.109,0.045l0.107,0.047l0.107,0.05l0.105,0.052l0.103,0.055l0.102,0.057l0.101,0.059l0.098,0.062l0.098,0.064l0.095,0.066l0.094,0.069l0.092,0.07l0.091,0.073l0.088,0.075l0.087,0.077l0.085,0.079l0.083,0.081l0.081,0.083l0.079,0.085l0.077,0.087l0.075,0.089l0.073,0.09l0.071,0.092l0.068,0.094l0.066,0.096l0.065,0.097l0.061,0.099l0.06,0.1l0.057,0.102l0.054,0.104l0.052,0.105l0.05,0.106l0.047,0.108l0.045,0.109l0.042,0.11l0.039,0.112l0.037,0.113l0.034,0.114l0.031,0.115l0.029,0.116l0.025,0.118l0.023,0.118l0.02,0.12l0.017,0.12l0.013,0.121l0.011,0.123l0.008,0.123l0.003,0.062l0.002,0.062l0.001,0.062l0,0.062l0,0.063l-0.001,0.062l-0.002,0.062l-0.003,0.062l-0.003,0.062l-0.005,0.061l-0.005,0.061l-0.006,0.061l-0.006,0.061l-0.007,0.061l-0.009,0.06l-0.008,0.06l-0.01,0.06l-0.01,0.059l-0.011,0.06l-0.012,0.059l-0.012,0.059l-0.013,0.058l-0.029,0.117l-0.031,0.115l-0.034,0.114l-0.037,0.113l-0.039,0.111l-0.042,0.111l-0.045,0.109l-0.047,0.108l-0.05,0.106l-0.052,0.105l-0.054,0.103l-0.057,0.102l-0.06,0.101l-0.061,0.099l-0.065,0.097l-0.066,0.096l-0.068,0.093l-0.071,0.093l-0.073,0.09l-0.075,0.089l-0.077,0.086l-0.079,0.085l-0.081,0.083l-0.083,0.081l-0.085,0.079l-0.087,0.077l-0.088,0.075l-0.091,0.073l-0.092,0.071l-0.094,0.068l-0.095,0.067l-0.098,0.064l-0.098,0.062l-0.101,0.059l-0.102,0.057l-0.103,0.055l-0.105,0.052l-0.107,0.049l-0.107,0.048l-0.109,0.044l-0.111,0.042l-0.111,0.04l-0.113,0.036l-0.114,0.034l-0.116,0.031l-0.116,0.029l-0.059,0.013l-0.058,0.012l-0.059,0.012l-0.06,0.011l-0.059,0.01l-0.06,0.01l-0.06,0.009l-0.061,0.008l-0.06,0.007l-0.061,0.007l-0.061,0.006l-0.061,0.005l-0.062,0.004l-0.061,0.003l-0.062,0.003l-0.062,0.002l-0.062,0.001l-0.063,0.001l-0.062,-0.001l-0.063,-0.001l-0.062,-0.002l-0.061,-0.003l-0.062,-0.003l-0.062,-0.004l-0.061,-0.005l-0.061,-0.006l-0.061,-0.007l-0.06,-0.007l-0.06,-0.008l-0.061,-0.009l-0.059,-0.01l-0.06,-0.01l-0.059,-0.011l-0.059,-0.012l-0.059,-0.012l-0.059,-0.013l-0.116,-0.029l-0.115,-0.031l-0.115,-0.034l-0.112,-0.036l-0.112,-0.04l-0.11,-0.042l-0.11,-0.044l-0.107,-0.048l-0.107,-0.049l-0.105,-0.052l-0.103,-0.055l-0.102,-0.057l-0.1,-0.059l-0.099,-0.062l-0.097,-0.064l-0.096,-0.067l-0.094,-0.068l-0.092,-0.071l-0.091,-0.073l-0.088,-0.075l-0.087,-0.077l-0.085,-0.079l-0.083,-0.081l-0.081,-0.083l-0.079,-0.085l-0.077,-0.086l-0.075,-0.089l-0.073,-0.09l-0.071,-0.093l-0.068,-0.093l-0.066,-0.096l-0.064,-0.097l-0.062,-0.099l-0.06,-0.101l-0.057,-0.102l-0.054,-0.103l-0.052,-0.105l-0.05,-0.106l-0.047,-0.108l-0.045,-0.109l-0.042,-0.111l-0.039,-0.111l-0.037,-0.113l-0.034,-0.114l-0.031,-0.115l-0.028,-0.117l-0.014,-0.058l-0.012,-0.059l-0.012,-0.059l-0.011,-0.06l-0.01,-0.059l-0.01,-0.06l-0.008,-0.06l-0.008,-0.06l-0.008,-0.061l-0.006,-0.061l-0.006,-0.061l-0.005,-0.061l-0.004,-0.061l-0.004,-0.062l-0.003,-0.062l-0.002,-0.062l-0.001,-0.062l0,-0.063l0,-0.062l0.001,-0.062l0.002,-0.062l0.003,-0.062l0.004,-0.062l0.004,-0.061l0.005,-0.062l0.006,-0.061l0.006,-0.06l0.008,-0.061l0.008,-0.06l0.008,-0.06l0.01,-0.06l0.01,-0.06l0.011,-0.059l0.012,-0.059l0.012,-0.059l0.014,-0.059l0.028,-0.116l0.031,-0.115l0.034,-0.114l0.037,-0.113l0.039,-0.112l0.042,-0.11l0.045,-0.109l0.047,-0.108l0.05,-0.106l0.052,-0.105l0.054,-0.104l0.057,-0.102l0.06,-0.1l0.062,-0.099l0.064,-0.097l0.066,-0.096l0.068,-0.094l0.071,-0.092l0.073,-0.09l0.075,-0.089l0.077,-0.087l0.079,-0.085l0.081,-0.083l0.083,-0.081l0.085,-0.079l0.087,-0.077l0.088,-0.075l0.091,-0.073l0.092,-0.07l0.094,-0.069l0.096,-0.066l0.097,-0.064l0.099,-0.062l0.1,-0.059l0.102,-0.057l0.103,-0.055l0.105,-0.052l0.107,-0.05l0.107,-0.047l0.11,-0.045l0.11,-0.042l0.112,-0.039l0.112,-0.037l0.115,-0.034l0.115,-0.031l0.116,-0.028l0.059,-0.013l0.059,-0.013l0.059,-0.011l0.059,-0.011l0.06,-0.011l0.059,-0.009l0.061,-0.009l0.06,-0.008l0.06,-0.007l0.061,-0.007l0.061,-0.006l0.061,-0.005l0.062,-0.004l0.062,-0.004l0.061,-0.002l0.062,-0.002l0.063,-0.002l0.062,0l0.063,0Zm-0.087,3l-0.025,0.001l-0.024,0l-0.023,0.001l-0.024,0.002l-0.024,0.001l-0.023,0.002l-0.023,0.003l-0.023,0.002l-0.023,0.003l-0.023,0.003l-0.023,0.003l-0.022,0.004l-0.023,0.004l-0.022,0.004l-0.022,0.004l-0.023,0.005l-0.012,0.003l-0.053,0.013l-0.043,0.011l-0.043,0.013l-0.042,0.014l-0.042,0.015l-0.041,0.015l-0.041,0.017l-0.041,0.018l-0.04,0.018l-0.039,0.02l-0.039,0.021l-0.039,0.021l-0.038,0.023l-0.038,0.023l-0.037,0.025l-0.036,0.025l-0.036,0.026l-0.035,0.027l-0.035,0.028l-0.034,0.029l-0.033,0.029l-0.033,0.031l-0.031,0.031l-0.032,0.032l-0.03,0.032l-0.029,0.034l-0.029,0.033l-0.028,0.035l-0.027,0.035l-0.026,0.036l-0.026,0.037l-0.024,0.037l-0.023,0.037l-0.023,0.038l-0.022,0.039l-0.02,0.039l-0.02,0.04l-0.019,0.04l-0.017,0.04l-0.017,0.041l-0.016,0.041l-0.014,0.042l-0.014,0.042l-0.013,0.043l-0.012,0.043l-0.012,0.053l-0.003,0.013l-0.005,0.022l-0.004,0.022l-0.005,0.022l-0.003,0.023l-0.004,0.022l-0.003,0.023l-0.003,0.023l-0.003,0.023l-0.003,0.023l-0.002,0.023l-0.002,0.024l-0.001,0.023l-0.002,0.024l-0.001,0.024l-0.001,0.024l0,0.024l0,0.024l0.002,0.097l0.007,0.094l0.012,0.091l0.016,0.09l0.008,0.035l0.012,0.052l0.012,0.044l0.013,0.042l0.014,0.042l0.03,0.084l0.034,0.081l0.039,0.08l0.042,0.077l0.046,0.076l0.05,0.073l0.053,0.072l0.057,0.068l0.059,0.066l0.063,0.063l0.066,0.06l0.069,0.056l0.071,0.054l0.073,0.049l0.076,0.046l0.078,0.043l0.079,0.038l0.082,0.034l0.083,0.031l0.042,0.014l0.043,0.012l0.043,0.012l0.088,0.02l0.089,0.016l0.092,0.012l0.094,0.007l0.096,0.003l0.024,-0.001l0.025,0l0.024,-0.001l0.024,-0.001l0.023,-0.001l0.024,-0.002l0.023,-0.002l0.023,-0.002l0.024,-0.002l0.023,-0.003l0.022,-0.003l0.023,-0.004l0.023,-0.003l0.022,-0.004l0.022,-0.004l0.023,-0.005l0.022,-0.004l0.013,-0.003l0.052,-0.013l0.043,-0.012l0.043,-0.012l0.042,-0.014l0.042,-0.015l0.041,-0.016l0.041,-0.016l0.041,-0.018l0.04,-0.019l0.039,-0.019l0.039,-0.021l0.039,-0.022l0.038,-0.022l0.038,-0.024l0.037,-0.024l0.036,-0.025l0.036,-0.026l0.035,-0.028l0.035,-0.027l0.034,-0.029l0.033,-0.03l0.033,-0.03l0.032,-0.031l0.031,-0.032l0.03,-0.033l0.03,-0.033l0.028,-0.034l0.028,-0.034l0.027,-0.036l0.026,-0.036l0.026,-0.036l0.024,-0.037l0.024,-0.038l0.022,-0.038l0.022,-0.038l0.02,-0.039l0.02,-0.04l0.019,-0.04l0.017,-0.04l0.017,-0.041l0.016,-0.042l0.015,-0.042l0.013,-0.042l0.013,-0.042l0.012,-0.044l0.013,-0.052l0.002,-0.013l0.005,-0.022l0.005,-0.022l0.004,-0.023l0.004,-0.022l0.003,-0.023l0.003,-0.022l0.003,-0.023l0.003,-0.023l0.003,-0.023l0.002,-0.023l0.002,-0.024l0.002,-0.024l0.001,-0.023l0.001,-0.024l0.001,-0.024l0,-0.024l0,-0.025l0,-0.024l0,-0.024l-0.001,-0.024l-0.001,-0.024l-0.001,-0.024l-0.002,-0.023l-0.002,-0.024l-0.002,-0.023l-0.003,-0.023l-0.003,-0.023l-0.003,-0.023l-0.003,-0.023l-0.003,-0.022l-0.004,-0.023l-0.004,-0.022l-0.005,-0.022l-0.005,-0.022l-0.002,-0.013l-0.013,-0.053l-0.012,-0.043l-0.013,-0.043l-0.013,-0.042l-0.015,-0.042l-0.016,-0.041l-0.017,-0.041l-0.017,-0.04l-0.019,-0.04l-0.02,-0.04l-0.02,-0.039l-0.022,-0.039l-0.022,-0.038l-0.024,-0.037l-0.024,-0.037l-0.026,-0.037l-0.026,-0.036l-0.027,-0.035l-0.028,-0.035l-0.028,-0.033l-0.03,-0.034l-0.03,-0.032l-0.031,-0.032l-0.032,-0.031l-0.033,-0.031l-0.033,-0.029l-0.034,-0.029l-0.035,-0.028l-0.035,-0.027l-0.036,-0.026l-0.036,-0.025l-0.037,-0.025l-0.038,-0.023l-0.038,-0.023l-0.039,-0.021l-0.039,-0.021l-0.039,-0.02l-0.04,-0.018l-0.041,-0.018l-0.041,-0.017l-0.041,-0.015l-0.042,-0.015l-0.042,-0.014l-0.043,-0.013l-0.043,-0.011l-0.052,-0.013l-0.013,-0.003l-0.022,-0.005l-0.023,-0.004l-0.022,-0.004l-0.022,-0.004l-0.023,-0.004l-0.023,-0.003l-0.022,-0.003l-0.023,-0.003l-0.024,-0.002l-0.023,-0.003l-0.023,-0.002l-0.024,-0.001l-0.023,-0.002l-0.024,-0.001l-0.024,0l-0.025,-0.001l-0.024,0l-0.024,0Z" style="fill:#008450;" />
        <path d="M55.588,51.334l0.062,0.001l0.062,0.002l0.062,0.003l0.123,0.007l0.122,0.011l0.122,0.014l0.12,0.017l0.12,0.02l0.118,0.023l0.118,0.025l0.116,0.029l0.115,0.031l0.114,0.034l0.113,0.036l0.112,0.04l0.11,0.042l0.109,0.044l0.108,0.048l0.106,0.049l0.105,0.052l0.104,0.055l0.102,0.057l0.1,0.059l0.099,0.062l0.097,0.064l0.096,0.067l0.094,0.068l0.092,0.071l0.09,0.073l0.089,0.075l0.087,0.077l0.085,0.079l0.083,0.081l0.081,0.083l0.079,0.085l0.077,0.086l0.075,0.089l0.072,0.09l0.071,0.093l0.069,0.093l0.066,0.096l0.064,0.097l0.062,0.099l0.059,0.101l0.057,0.102l0.055,0.103l0.052,0.105l0.05,0.106l0.047,0.108l0.044,0.109l0.042,0.111l0.04,0.111l0.036,0.113l0.034,0.114l0.032,0.115l0.028,0.117l0.026,0.117l0.022,0.119l0.02,0.119l0.017,0.12l0.014,0.122l0.011,0.122l0.008,0.123l0.002,0.062l0.002,0.062l0.001,0.062l0.001,0.063l-0.001,0.062l-0.001,0.062l-0.002,0.062l-0.002,0.062l-0.004,0.062l-0.004,0.061l-0.005,0.062l-0.006,0.061l-0.007,0.06l-0.007,0.061l-0.008,0.06l-0.009,0.06l-0.009,0.06l-0.011,0.06l-0.011,0.059l-0.011,0.059l-0.013,0.059l-0.013,0.059l-0.028,0.116l-0.032,0.115l-0.034,0.114l-0.036,0.113l-0.04,0.112l-0.042,0.11l-0.044,0.109l-0.047,0.108l-0.05,0.106l-0.052,0.105l-0.055,0.104l-0.057,0.102l-0.059,0.1l-0.062,0.099l-0.064,0.097l-0.066,0.096l-0.069,0.094l-0.071,0.092l-0.072,0.09l-0.075,0.089l-0.077,0.087l-0.079,0.085l-0.081,0.083l-0.083,0.081l-0.085,0.079l-0.087,0.077l-0.089,0.075l-0.09,0.073l-0.092,0.07l-0.094,0.069l-0.096,0.066l-0.097,0.064l-0.099,0.062l-0.1,0.059l-0.102,0.057l-0.104,0.055l-0.105,0.052l-0.106,0.05l-0.108,0.047l-0.109,0.045l-0.11,0.042l-0.112,0.039l-0.113,0.037l-0.114,0.034l-0.115,0.031l-0.116,0.028l-0.059,0.013l-0.059,0.013l-0.059,0.011l-0.059,0.011l-0.06,0.011l-0.06,0.009l-0.06,0.009l-0.06,0.008l-0.061,0.007l-0.061,0.007l-0.061,0.006l-0.061,0.005l-0.061,0.004l-0.062,0.004l-0.062,0.002l-0.062,0.002l-0.062,0.002l-0.062,0l-0.063,0l-0.062,-0.002l-0.062,-0.002l-0.062,-0.002l-0.062,-0.004l-0.061,-0.004l-0.061,-0.005l-0.061,-0.006l-0.061,-0.007l-0.061,-0.007l-0.06,-0.008l-0.06,-0.009l-0.06,-0.009l-0.06,-0.011l-0.059,-0.011l-0.059,-0.011l-0.059,-0.013l-0.058,-0.013l-0.117,-0.028l-0.115,-0.031l-0.114,-0.034l-0.113,-0.037l-0.112,-0.039l-0.11,-0.042l-0.109,-0.045l-0.108,-0.047l-0.106,-0.05l-0.105,-0.052l-0.104,-0.055l-0.101,-0.057l-0.101,-0.059l-0.099,-0.062l-0.097,-0.064l-0.096,-0.066l-0.094,-0.069l-0.092,-0.07l-0.09,-0.073l-0.089,-0.075l-0.087,-0.077l-0.084,-0.079l-0.083,-0.081l-0.082,-0.083l-0.079,-0.085l-0.077,-0.087l-0.075,-0.089l-0.072,-0.09l-0.071,-0.092l-0.069,-0.094l-0.066,-0.096l-0.064,-0.097l-0.062,-0.099l-0.059,-0.1l-0.057,-0.102l-0.055,-0.104l-0.052,-0.105l-0.05,-0.106l-0.047,-0.108l-0.044,-0.109l-0.042,-0.11l-0.04,-0.112l-0.036,-0.113l-0.034,-0.114l-0.032,-0.115l-0.028,-0.116l-0.013,-0.059l-0.013,-0.059l-0.011,-0.059l-0.011,-0.059l-0.011,-0.06l-0.009,-0.06l-0.009,-0.06l-0.008,-0.06l-0.007,-0.061l-0.007,-0.06l-0.006,-0.061l-0.005,-0.062l-0.004,-0.061l-0.003,-0.062l-0.003,-0.062l-0.002,-0.062l-0.001,-0.062l-0.001,-0.062l0.001,-0.063l0.001,-0.062l0.002,-0.062l0.003,-0.062l0.003,-0.062l0.004,-0.061l0.005,-0.061l0.006,-0.061l0.007,-0.061l0.007,-0.061l0.008,-0.06l0.009,-0.06l0.009,-0.06l0.011,-0.059l0.011,-0.06l0.011,-0.059l0.013,-0.059l0.013,-0.058l0.028,-0.117l0.032,-0.115l0.034,-0.114l0.036,-0.113l0.04,-0.111l0.042,-0.111l0.044,-0.109l0.047,-0.108l0.05,-0.106l0.052,-0.105l0.055,-0.103l0.057,-0.102l0.059,-0.101l0.062,-0.099l0.064,-0.097l0.066,-0.096l0.069,-0.093l0.071,-0.093l0.072,-0.09l0.075,-0.089l0.077,-0.086l0.079,-0.085l0.082,-0.083l0.083,-0.081l0.084,-0.079l0.087,-0.077l0.089,-0.075l0.09,-0.073l0.092,-0.071l0.094,-0.068l0.096,-0.067l0.097,-0.064l0.099,-0.062l0.101,-0.059l0.101,-0.057l0.104,-0.055l0.105,-0.052l0.106,-0.049l0.108,-0.048l0.109,-0.044l0.11,-0.042l0.112,-0.04l0.113,-0.036l0.114,-0.034l0.115,-0.031l0.117,-0.029l0.058,-0.013l0.059,-0.012l0.059,-0.012l0.059,-0.011l0.06,-0.01l0.06,-0.01l0.06,-0.009l0.06,-0.008l0.061,-0.007l0.061,-0.007l0.061,-0.006l0.061,-0.005l0.061,-0.004l0.062,-0.003l0.062,-0.003l0.062,-0.002l0.062,-0.001l0.063,-0.001l0.062,0.001Zm-0.087,3l-0.024,0l-0.024,0.001l-0.024,0.001l-0.024,0.001l-0.023,0.002l-0.024,0.002l-0.023,0.002l-0.023,0.002l-0.023,0.003l-0.023,0.003l-0.023,0.004l-0.022,0.003l-0.022,0.004l-0.023,0.004l-0.022,0.005l-0.022,0.004l-0.013,0.003l-0.053,0.013l-0.043,0.012l-0.042,0.012l-0.043,0.014l-0.041,0.015l-0.042,0.016l-0.041,0.016l-0.04,0.018l-0.04,0.019l-0.04,0.019l-0.039,0.021l-0.038,0.022l-0.039,0.022l-0.037,0.024l-0.037,0.024l-0.037,0.025l-0.035,0.026l-0.036,0.028l-0.034,0.027l-0.034,0.029l-0.034,0.03l-0.032,0.03l-0.032,0.031l-0.031,0.032l-0.03,0.033l-0.03,0.033l-0.029,0.034l-0.028,0.034l-0.027,0.036l-0.026,0.036l-0.025,0.036l-0.024,0.037l-0.024,0.038l-0.022,0.038l-0.022,0.038l-0.021,0.039l-0.019,0.04l-0.019,0.04l-0.018,0.04l-0.017,0.041l-0.015,0.042l-0.015,0.042l-0.014,0.042l-0.012,0.042l-0.012,0.044l-0.013,0.052l-0.003,0.013l-0.004,0.022l-0.005,0.022l-0.004,0.023l-0.004,0.022l-0.003,0.023l-0.004,0.022l-0.003,0.023l-0.003,0.023l-0.002,0.023l-0.002,0.024l-0.002,0.023l-0.002,0.023l-0.001,0.024l-0.001,0.024l-0.001,0.024l-0.001,0.024l0,0.025l0.003,0.096l0.007,0.094l0.012,0.092l0.016,0.089l0.007,0.035l0.013,0.053l0.012,0.043l0.012,0.043l0.014,0.042l0.03,0.083l0.035,0.081l0.038,0.08l0.043,0.078l0.046,0.075l0.049,0.074l0.053,0.071l0.057,0.069l0.06,0.065l0.063,0.063l0.066,0.06l0.068,0.057l0.071,0.053l0.074,0.05l0.076,0.046l0.077,0.042l0.08,0.038l0.081,0.035l0.083,0.03l0.043,0.014l0.042,0.013l0.043,0.011l0.088,0.021l0.09,0.016l0.091,0.011l0.094,0.007l0.097,0.003l0.024,0l0.024,-0.001l0.024,0l0.024,-0.002l0.024,-0.001l0.023,-0.001l0.024,-0.002l0.023,-0.003l0.023,-0.002l0.023,-0.003l0.023,-0.003l0.023,-0.003l0.022,-0.004l0.023,-0.004l0.022,-0.004l0.022,-0.004l0.022,-0.005l0.013,-0.003l0.053,-0.013l0.043,-0.011l0.042,-0.013l0.043,-0.014l0.041,-0.015l0.042,-0.015l0.041,-0.017l0.04,-0.018l0.04,-0.018l0.04,-0.02l0.039,-0.021l0.039,-0.021l0.038,-0.023l0.037,-0.023l0.037,-0.025l0.037,-0.025l0.035,-0.026l0.036,-0.027l0.034,-0.028l0.034,-0.029l0.034,-0.029l0.032,-0.031l0.032,-0.031l0.031,-0.032l0.031,-0.032l0.029,-0.034l0.029,-0.033l0.028,-0.035l0.027,-0.035l0.026,-0.036l0.025,-0.037l0.025,-0.037l0.023,-0.037l0.023,-0.038l0.021,-0.039l0.021,-0.039l0.019,-0.04l0.019,-0.04l0.018,-0.04l0.017,-0.041l0.015,-0.041l0.015,-0.042l0.014,-0.042l0.012,-0.043l0.012,-0.043l0.013,-0.053l0.003,-0.013l0.005,-0.022l0.004,-0.022l0.004,-0.022l0.004,-0.023l0.004,-0.022l0.003,-0.023l0.003,-0.023l0.003,-0.023l0.002,-0.023l0.002,-0.023l0.002,-0.024l0.002,-0.023l0.001,-0.024l0.001,-0.024l0.001,-0.024l0.001,-0.024l0,-0.024l0,-0.025l-0.001,-0.024l-0.001,-0.024l-0.001,-0.024l-0.001,-0.024l-0.002,-0.023l-0.002,-0.023l-0.002,-0.024l-0.002,-0.023l-0.003,-0.023l-0.003,-0.023l-0.003,-0.022l-0.004,-0.023l-0.004,-0.022l-0.004,-0.023l-0.004,-0.022l-0.005,-0.022l-0.003,-0.013l-0.013,-0.052l-0.012,-0.044l-0.012,-0.042l-0.014,-0.042l-0.015,-0.042l-0.015,-0.042l-0.017,-0.041l-0.018,-0.04l-0.019,-0.04l-0.019,-0.04l-0.021,-0.039l-0.021,-0.038l-0.023,-0.038l-0.023,-0.038l-0.025,-0.037l-0.025,-0.036l-0.026,-0.036l-0.027,-0.036l-0.028,-0.034l-0.029,-0.034l-0.029,-0.033l-0.031,-0.033l-0.031,-0.032l-0.032,-0.031l-0.032,-0.03l-0.034,-0.03l-0.034,-0.029l-0.034,-0.027l-0.035,-0.028l-0.036,-0.026l-0.037,-0.025l-0.037,-0.024l-0.037,-0.024l-0.039,-0.022l-0.038,-0.022l-0.039,-0.021l-0.04,-0.019l-0.04,-0.019l-0.04,-0.018l-0.041,-0.016l-0.042,-0.016l-0.041,-0.015l-0.043,-0.014l-0.042,-0.012l-0.043,-0.012l-0.053,-0.013l-0.013,-0.003l-0.022,-0.004l-0.022,-0.005l-0.022,-0.004l-0.023,-0.004l-0.022,-0.003l-0.023,-0.004l-0.023,-0.003l-0.023,-0.003l-0.023,-0.002l-0.023,-0.002l-0.024,-0.002l-0.023,-0.002l-0.024,-0.001l-0.024,-0.001l-0.024,-0.001l-0.024,0l-0.024,-0.001l-0.025,0.001Z" style="fill:#008450;" />
        <path d="M8.662,48.924l0.062,0.001l0.062,0.002l0.062,0.002l0.123,0.008l0.123,0.011l0.121,0.014l0.12,0.017l0.12,0.02l0.118,0.022l0.118,0.026l0.116,0.028l0.115,0.032l0.114,0.034l0.113,0.036l0.112,0.04l0.11,0.042l0.109,0.044l0.108,0.047l0.106,0.05l0.105,0.052l0.104,0.055l0.102,0.057l0.1,0.059l0.099,0.062l0.097,0.064l0.096,0.066l0.094,0.069l0.092,0.071l0.09,0.072l0.089,0.075l0.087,0.077l0.085,0.079l0.083,0.081l0.081,0.083l0.079,0.085l0.077,0.087l0.075,0.089l0.073,0.09l0.07,0.092l0.069,0.094l0.066,0.096l0.064,0.097l0.062,0.099l0.059,0.1l0.057,0.102l0.055,0.104l0.052,0.105l0.05,0.106l0.047,0.108l0.045,0.109l0.042,0.11l0.039,0.112l0.037,0.113l0.034,0.114l0.031,0.115l0.028,0.116l0.026,0.118l0.022,0.118l0.02,0.12l0.017,0.12l0.014,0.122l0.011,0.122l0.008,0.123l0.002,0.062l0.002,0.062l0.002,0.062l0,0.062l0,0.063l-0.002,0.062l-0.002,0.062l-0.002,0.062l-0.004,0.062l-0.004,0.061l-0.005,0.061l-0.006,0.061l-0.007,0.061l-0.007,0.061l-0.008,0.06l-0.009,0.06l-0.009,0.06l-0.011,0.06l-0.011,0.059l-0.011,0.059l-0.013,0.059l-0.013,0.058l-0.028,0.117l-0.031,0.115l-0.034,0.114l-0.037,0.113l-0.039,0.112l-0.042,0.11l-0.045,0.109l-0.047,0.108l-0.05,0.106l-0.052,0.105l-0.055,0.104l-0.057,0.102l-0.059,0.1l-0.062,0.099l-0.064,0.097l-0.066,0.096l-0.069,0.094l-0.07,0.092l-0.073,0.09l-0.075,0.089l-0.077,0.087l-0.079,0.085l-0.081,0.082l-0.083,0.082l-0.085,0.079l-0.087,0.077l-0.089,0.075l-0.09,0.072l-0.092,0.071l-0.094,0.069l-0.096,0.066l-0.097,0.064l-0.099,0.062l-0.1,0.059l-0.102,0.057l-0.104,0.055l-0.105,0.052l-0.106,0.05l-0.108,0.047l-0.109,0.044l-0.11,0.042l-0.112,0.04l-0.113,0.036l-0.114,0.034l-0.115,0.032l-0.116,0.028l-0.059,0.013l-0.059,0.013l-0.059,0.011l-0.059,0.011l-0.06,0.011l-0.06,0.009l-0.06,0.009l-0.06,0.008l-0.061,0.007l-0.06,0.007l-0.061,0.006l-0.062,0.005l-0.061,0.004l-0.062,0.004l-0.062,0.002l-0.062,0.002l-0.062,0.001l-0.062,0.001l-0.063,-0.001l-0.062,-0.001l-0.062,-0.002l-0.062,-0.002l-0.062,-0.004l-0.061,-0.004l-0.061,-0.005l-0.061,-0.006l-0.061,-0.007l-0.061,-0.007l-0.06,-0.008l-0.06,-0.009l-0.06,-0.009l-0.059,-0.011l-0.06,-0.011l-0.059,-0.011l-0.059,-0.013l-0.058,-0.013l-0.117,-0.028l-0.115,-0.032l-0.114,-0.034l-0.113,-0.036l-0.111,-0.04l-0.111,-0.042l-0.109,-0.044l-0.108,-0.047l-0.106,-0.05l-0.105,-0.052l-0.103,-0.055l-0.102,-0.057l-0.101,-0.059l-0.099,-0.062l-0.097,-0.064l-0.095,-0.066l-0.094,-0.069l-0.093,-0.071l-0.09,-0.072l-0.089,-0.075l-0.086,-0.077l-0.085,-0.079l-0.083,-0.082l-0.081,-0.082l-0.079,-0.085l-0.077,-0.087l-0.075,-0.089l-0.073,-0.09l-0.071,-0.092l-0.068,-0.094l-0.067,-0.096l-0.064,-0.097l-0.061,-0.099l-0.06,-0.1l-0.057,-0.102l-0.055,-0.104l-0.052,-0.105l-0.049,-0.106l-0.048,-0.108l-0.044,-0.109l-0.042,-0.11l-0.04,-0.112l-0.036,-0.113l-0.034,-0.114l-0.031,-0.115l-0.029,-0.117l-0.013,-0.058l-0.012,-0.059l-0.012,-0.059l-0.011,-0.059l-0.01,-0.06l-0.01,-0.06l-0.009,-0.06l-0.008,-0.06l-0.007,-0.061l-0.007,-0.061l-0.005,-0.061l-0.006,-0.061l-0.004,-0.061l-0.003,-0.062l-0.003,-0.062l-0.002,-0.062l-0.001,-0.062l-0.001,-0.063l0.001,-0.062l0.001,-0.062l0.002,-0.062l0.003,-0.062l0.003,-0.062l0.004,-0.061l0.006,-0.061l0.005,-0.061l0.007,-0.061l0.007,-0.061l0.008,-0.06l0.009,-0.06l0.01,-0.06l0.01,-0.06l0.011,-0.059l0.012,-0.059l0.012,-0.059l0.013,-0.059l0.029,-0.116l0.031,-0.115l0.034,-0.114l0.036,-0.113l0.04,-0.112l0.042,-0.11l0.044,-0.109l0.048,-0.108l0.049,-0.106l0.052,-0.105l0.055,-0.104l0.057,-0.102l0.06,-0.1l0.061,-0.099l0.064,-0.097l0.067,-0.096l0.068,-0.094l0.071,-0.092l0.073,-0.09l0.075,-0.089l0.077,-0.087l0.079,-0.085l0.081,-0.083l0.083,-0.081l0.085,-0.079l0.086,-0.077l0.089,-0.075l0.09,-0.072l0.093,-0.071l0.094,-0.069l0.095,-0.066l0.097,-0.064l0.099,-0.062l0.101,-0.059l0.102,-0.057l0.103,-0.055l0.105,-0.052l0.106,-0.05l0.108,-0.047l0.109,-0.044l0.111,-0.042l0.111,-0.04l0.113,-0.036l0.114,-0.034l0.115,-0.032l0.117,-0.028l0.058,-0.013l0.059,-0.013l0.059,-0.011l0.06,-0.011l0.059,-0.011l0.06,-0.009l0.06,-0.009l0.06,-0.008l0.061,-0.007l0.061,-0.007l0.061,-0.006l0.061,-0.005l0.061,-0.004l0.062,-0.004l0.062,-0.002l0.062,-0.002l0.062,-0.001l0.063,-0.001l0.062,0.001Zm-0.087,2.999l-0.024,0.001l-0.024,0.001l-0.024,0.001l-0.023,0.001l-0.024,0.002l-0.023,0.002l-0.024,0.002l-0.023,0.002l-0.023,0.003l-0.023,0.003l-0.022,0.003l-0.023,0.004l-0.022,0.004l-0.023,0.004l-0.022,0.004l-0.022,0.005l-0.013,0.003l-0.052,0.013l-0.044,0.012l-0.042,0.012l-0.042,0.014l-0.042,0.015l-0.042,0.015l-0.04,0.017l-0.041,0.018l-0.04,0.019l-0.04,0.019l-0.039,0.021l-0.038,0.021l-0.038,0.023l-0.038,0.023l-0.037,0.025l-0.036,0.025l-0.036,0.026l-0.036,0.027l-0.034,0.028l-0.034,0.029l-0.033,0.03l-0.033,0.03l-0.032,0.031l-0.031,0.032l-0.03,0.032l-0.03,0.034l-0.029,0.034l-0.027,0.034l-0.027,0.036l-0.027,0.035l-0.025,0.037l-0.024,0.037l-0.024,0.037l-0.022,0.039l-0.022,0.038l-0.021,0.039l-0.019,0.04l-0.019,0.04l-0.018,0.04l-0.016,0.041l-0.016,0.042l-0.015,0.041l-0.014,0.043l-0.012,0.042l-0.012,0.043l-0.013,0.053l-0.003,0.013l-0.004,0.022l-0.005,0.022l-0.004,0.022l-0.004,0.023l-0.003,0.022l-0.004,0.023l-0.003,0.023l-0.003,0.023l-0.002,0.023l-0.002,0.023l-0.002,0.024l-0.002,0.023l-0.001,0.024l-0.001,0.024l-0.001,0.024l0,0.024l-0.001,0.024l0.003,0.097l0.007,0.094l0.012,0.091l0.016,0.09l0.007,0.035l0.013,0.053l0.012,0.043l0.012,0.042l0.014,0.043l0.031,0.083l0.034,0.081l0.038,0.08l0.043,0.077l0.046,0.076l0.049,0.074l0.054,0.071l0.056,0.068l0.06,0.066l0.063,0.063l0.066,0.06l0.068,0.057l0.072,0.053l0.073,0.049l0.076,0.046l0.077,0.043l0.08,0.038l0.081,0.035l0.084,0.03l0.042,0.014l0.042,0.012l0.044,0.012l0.087,0.021l0.09,0.016l0.091,0.011l0.094,0.007l0.097,0.003l0.024,0l0.024,-0.001l0.024,-0.001l0.024,-0.001l0.024,-0.001l0.023,-0.002l0.024,-0.002l0.023,-0.002l0.023,-0.002l0.023,-0.003l0.023,-0.003l0.023,-0.003l0.022,-0.004l0.023,-0.004l0.022,-0.004l0.022,-0.004l0.022,-0.005l0.013,-0.003l0.053,-0.013l0.043,-0.012l0.043,-0.012l0.042,-0.014l0.042,-0.015l0.041,-0.015l0.041,-0.017l0.04,-0.018l0.04,-0.019l0.04,-0.019l0.039,-0.021l0.039,-0.022l0.038,-0.022l0.037,-0.024l0.037,-0.024l0.037,-0.025l0.036,-0.026l0.035,-0.027l0.035,-0.028l0.034,-0.029l0.033,-0.03l0.032,-0.03l0.032,-0.031l0.031,-0.032l0.031,-0.032l0.029,-0.034l0.029,-0.034l0.028,-0.034l0.027,-0.036l0.026,-0.035l0.025,-0.037l0.025,-0.037l0.023,-0.037l0.023,-0.039l0.021,-0.038l0.021,-0.039l0.02,-0.04l0.018,-0.04l0.018,-0.04l0.017,-0.041l0.015,-0.042l0.015,-0.041l0.014,-0.043l0.013,-0.042l0.011,-0.043l0.013,-0.053l0.003,-0.013l0.005,-0.022l0.004,-0.022l0.004,-0.023l0.004,-0.022l0.004,-0.023l0.003,-0.022l0.003,-0.023l0.003,-0.023l0.002,-0.023l0.003,-0.023l0.002,-0.024l0.001,-0.023l0.002,-0.024l0.001,-0.024l0,-0.024l0.001,-0.024l0,-0.025l0,-0.024l-0.001,-0.024l0,-0.024l-0.001,-0.024l-0.002,-0.024l-0.001,-0.023l-0.002,-0.024l-0.003,-0.023l-0.002,-0.023l-0.003,-0.023l-0.003,-0.023l-0.003,-0.023l-0.004,-0.022l-0.004,-0.023l-0.004,-0.022l-0.004,-0.022l-0.005,-0.022l-0.003,-0.013l-0.013,-0.053l-0.011,-0.043l-0.013,-0.042l-0.014,-0.043l-0.015,-0.041l-0.015,-0.042l-0.017,-0.041l-0.018,-0.04l-0.018,-0.04l-0.02,-0.04l-0.021,-0.039l-0.021,-0.038l-0.023,-0.039l-0.023,-0.037l-0.025,-0.037l-0.025,-0.037l-0.026,-0.035l-0.027,-0.036l-0.028,-0.034l-0.029,-0.034l-0.029,-0.034l-0.031,-0.032l-0.031,-0.032l-0.032,-0.031l-0.032,-0.03l-0.033,-0.03l-0.034,-0.029l-0.035,-0.028l-0.035,-0.027l-0.036,-0.026l-0.037,-0.025l-0.037,-0.025l-0.037,-0.023l-0.038,-0.023l-0.039,-0.021l-0.039,-0.021l-0.04,-0.019l-0.04,-0.019l-0.04,-0.018l-0.041,-0.017l-0.041,-0.015l-0.042,-0.015l-0.042,-0.014l-0.043,-0.012l-0.043,-0.012l-0.053,-0.013l-0.013,-0.003l-0.022,-0.005l-0.022,-0.004l-0.022,-0.004l-0.023,-0.004l-0.022,-0.004l-0.023,-0.003l-0.023,-0.003l-0.023,-0.003l-0.023,-0.002l-0.023,-0.002l-0.024,-0.002l-0.023,-0.002l-0.024,-0.001l-0.024,-0.001l-0.024,-0.001l-0.024,-0.001l-0.024,0l-0.025,0Z" style="fill:#008450;" />
        <path d="M14.329,34.332l0.062,0.002l0.062,0.002l0.062,0.002l0.123,0.008l0.122,0.011l0.122,0.014l0.12,0.017l0.119,0.02l0.119,0.022l0.117,0.026l0.117,0.028l0.115,0.032l0.114,0.034l0.113,0.036l0.111,0.04l0.111,0.042l0.109,0.044l0.108,0.047l0.106,0.05l0.105,0.052l0.103,0.055l0.102,0.057l0.101,0.059l0.099,0.062l0.097,0.064l0.096,0.066l0.093,0.069l0.093,0.071l0.09,0.072l0.089,0.075l0.086,0.077l0.085,0.079l0.083,0.081l0.081,0.083l0.079,0.085l0.077,0.087l0.075,0.089l0.073,0.09l0.071,0.092l0.068,0.094l0.067,0.096l0.064,0.097l0.062,0.099l0.059,0.1l0.057,0.102l0.055,0.104l0.052,0.105l0.049,0.106l0.048,0.108l0.044,0.109l0.042,0.11l0.04,0.112l0.036,0.113l0.034,0.114l0.031,0.115l0.029,0.116l0.025,0.118l0.023,0.118l0.02,0.12l0.017,0.12l0.014,0.122l0.011,0.122l0.007,0.123l0.003,0.062l0.002,0.062l0.001,0.062l0.001,0.062l-0.001,0.063l-0.001,0.062l-0.002,0.062l-0.003,0.062l-0.003,0.062l-0.004,0.061l-0.006,0.061l-0.005,0.061l-0.007,0.061l-0.007,0.061l-0.008,0.06l-0.009,0.06l-0.01,0.06l-0.01,0.06l-0.011,0.059l-0.012,0.059l-0.012,0.059l-0.013,0.058l-0.029,0.117l-0.031,0.115l-0.034,0.114l-0.036,0.113l-0.04,0.112l-0.042,0.11l-0.044,0.109l-0.048,0.108l-0.049,0.106l-0.052,0.105l-0.055,0.103l-0.057,0.102l-0.059,0.101l-0.062,0.099l-0.064,0.097l-0.067,0.096l-0.068,0.093l-0.071,0.093l-0.073,0.09l-0.075,0.089l-0.077,0.087l-0.079,0.084l-0.081,0.083l-0.083,0.081l-0.085,0.079l-0.086,0.078l-0.089,0.074l-0.09,0.073l-0.093,0.071l-0.093,0.069l-0.096,0.066l-0.097,0.064l-0.099,0.062l-0.101,0.059l-0.102,0.057l-0.103,0.055l-0.105,0.052l-0.106,0.049l-0.108,0.048l-0.109,0.044l-0.111,0.042l-0.111,0.04l-0.113,0.036l-0.114,0.034l-0.115,0.031l-0.117,0.029l-0.058,0.013l-0.059,0.012l-0.059,0.012l-0.06,0.011l-0.059,0.01l-0.06,0.01l-0.06,0.009l-0.06,0.008l-0.061,0.007l-0.061,0.007l-0.061,0.006l-0.061,0.005l-0.061,0.004l-0.062,0.003l-0.062,0.003l-0.062,0.002l-0.062,0.001l-0.063,0.001l-0.062,-0.001l-0.062,-0.001l-0.062,-0.002l-0.062,-0.003l-0.062,-0.003l-0.061,-0.004l-0.062,-0.005l-0.061,-0.006l-0.06,-0.007l-0.061,-0.007l-0.06,-0.008l-0.06,-0.009l-0.06,-0.01l-0.06,-0.01l-0.059,-0.011l-0.059,-0.012l-0.059,-0.012l-0.059,-0.013l-0.116,-0.029l-0.115,-0.031l-0.114,-0.034l-0.113,-0.036l-0.112,-0.04l-0.11,-0.042l-0.109,-0.044l-0.108,-0.048l-0.106,-0.049l-0.105,-0.052l-0.104,-0.055l-0.102,-0.057l-0.1,-0.059l-0.099,-0.062l-0.097,-0.064l-0.096,-0.066l-0.094,-0.069l-0.092,-0.071l-0.09,-0.073l-0.089,-0.074l-0.087,-0.078l-0.085,-0.079l-0.083,-0.081l-0.081,-0.083l-0.079,-0.084l-0.077,-0.087l-0.075,-0.089l-0.073,-0.09l-0.07,-0.093l-0.069,-0.093l-0.066,-0.096l-0.064,-0.097l-0.062,-0.099l-0.059,-0.101l-0.057,-0.102l-0.055,-0.103l-0.052,-0.105l-0.05,-0.106l-0.047,-0.108l-0.045,-0.109l-0.042,-0.11l-0.039,-0.112l-0.037,-0.113l-0.034,-0.114l-0.031,-0.115l-0.028,-0.117l-0.013,-0.058l-0.013,-0.059l-0.011,-0.059l-0.011,-0.059l-0.011,-0.06l-0.009,-0.06l-0.009,-0.06l-0.008,-0.06l-0.007,-0.061l-0.007,-0.061l-0.006,-0.061l-0.005,-0.061l-0.004,-0.061l-0.004,-0.062l-0.002,-0.062l-0.002,-0.062l-0.002,-0.062l0,-0.063l0,-0.062l0.002,-0.062l0.002,-0.062l0.002,-0.062l0.004,-0.062l0.004,-0.061l0.005,-0.061l0.006,-0.061l0.007,-0.061l0.007,-0.061l0.008,-0.06l0.009,-0.06l0.009,-0.06l0.011,-0.06l0.011,-0.059l0.011,-0.059l0.013,-0.059l0.013,-0.059l0.028,-0.116l0.031,-0.115l0.034,-0.114l0.037,-0.113l0.039,-0.112l0.042,-0.11l0.045,-0.109l0.047,-0.108l0.05,-0.106l0.052,-0.105l0.055,-0.104l0.057,-0.102l0.059,-0.1l0.062,-0.099l0.064,-0.097l0.066,-0.096l0.069,-0.094l0.07,-0.092l0.073,-0.09l0.075,-0.089l0.077,-0.087l0.079,-0.085l0.081,-0.083l0.083,-0.081l0.085,-0.079l0.087,-0.077l0.089,-0.075l0.09,-0.072l0.092,-0.071l0.094,-0.069l0.096,-0.066l0.097,-0.064l0.099,-0.062l0.1,-0.059l0.102,-0.057l0.104,-0.055l0.105,-0.052l0.106,-0.05l0.108,-0.047l0.109,-0.044l0.11,-0.042l0.112,-0.04l0.113,-0.036l0.114,-0.034l0.115,-0.032l0.116,-0.028l0.059,-0.013l0.059,-0.013l0.059,-0.011l0.059,-0.011l0.06,-0.011l0.06,-0.009l0.06,-0.009l0.06,-0.008l0.061,-0.007l0.06,-0.007l0.061,-0.006l0.062,-0.005l0.061,-0.004l0.062,-0.004l0.062,-0.002l0.062,-0.002l0.062,-0.002l0.062,0l0.063,0Zm-0.087,3l-0.024,0.001l-0.024,0.001l-0.024,0.001l-0.024,0.001l-0.023,0.002l-0.024,0.001l-0.023,0.003l-0.023,0.002l-0.023,0.003l-0.023,0.003l-0.023,0.003l-0.022,0.004l-0.023,0.004l-0.022,0.004l-0.022,0.004l-0.022,0.005l-0.013,0.003l-0.053,0.013l-0.043,0.011l-0.043,0.013l-0.042,0.014l-0.042,0.015l-0.041,0.015l-0.041,0.017l-0.04,0.018l-0.04,0.019l-0.04,0.019l-0.039,0.021l-0.039,0.021l-0.038,0.023l-0.037,0.023l-0.037,0.025l-0.037,0.025l-0.036,0.026l-0.035,0.027l-0.035,0.028l-0.033,0.029l-0.034,0.029l-0.032,0.031l-0.032,0.031l-0.031,0.032l-0.031,0.032l-0.029,0.034l-0.029,0.034l-0.028,0.034l-0.027,0.035l-0.026,0.036l-0.025,0.037l-0.025,0.037l-0.023,0.037l-0.023,0.038l-0.021,0.039l-0.021,0.039l-0.02,0.04l-0.018,0.04l-0.018,0.04l-0.017,0.041l-0.015,0.042l-0.015,0.041l-0.014,0.043l-0.013,0.042l-0.011,0.043l-0.013,0.053l-0.003,0.013l-0.005,0.022l-0.004,0.022l-0.004,0.022l-0.004,0.023l-0.004,0.022l-0.003,0.023l-0.003,0.023l-0.003,0.023l-0.002,0.023l-0.003,0.023l-0.002,0.024l-0.001,0.023l-0.002,0.024l-0.001,0.024l0,0.024l-0.001,0.024l0,0.024l0.002,0.097l0.008,0.094l0.011,0.091l0.016,0.09l0.008,0.035l0.013,0.053l0.011,0.043l0.013,0.042l0.014,0.043l0.03,0.083l0.035,0.081l0.038,0.08l0.042,0.077l0.046,0.076l0.05,0.073l0.053,0.072l0.057,0.068l0.06,0.066l0.063,0.063l0.066,0.06l0.068,0.057l0.071,0.053l0.074,0.049l0.075,0.046l0.078,0.043l0.08,0.038l0.081,0.034l0.083,0.031l0.042,0.014l0.043,0.012l0.043,0.012l0.088,0.02l0.089,0.016l0.092,0.012l0.094,0.007l0.096,0.003l0.025,0l0.024,-0.001l0.024,-0.001l0.024,-0.001l0.024,-0.001l0.023,-0.002l0.024,-0.002l0.023,-0.002l0.023,-0.002l0.023,-0.003l0.023,-0.003l0.022,-0.004l0.023,-0.003l0.022,-0.004l0.023,-0.004l0.022,-0.005l0.022,-0.004l0.013,-0.003l0.052,-0.013l0.044,-0.012l0.042,-0.012l0.042,-0.014l0.042,-0.015l0.042,-0.016l0.04,-0.016l0.041,-0.018l0.04,-0.019l0.04,-0.019l0.039,-0.021l0.038,-0.022l0.038,-0.022l0.038,-0.024l0.037,-0.024l0.036,-0.025l0.036,-0.026l0.036,-0.027l0.034,-0.028l0.034,-0.029l0.033,-0.03l0.033,-0.03l0.032,-0.031l0.031,-0.032l0.03,-0.033l0.03,-0.033l0.029,-0.034l0.027,-0.034l0.027,-0.036l0.027,-0.036l0.025,-0.036l0.024,-0.037l0.024,-0.038l0.022,-0.038l0.022,-0.038l0.021,-0.039l0.019,-0.04l0.019,-0.04l0.018,-0.04l0.016,-0.041l0.016,-0.042l0.015,-0.041l0.014,-0.043l0.012,-0.042l0.012,-0.043l0.013,-0.053l0.003,-0.013l0.004,-0.022l0.005,-0.022l0.004,-0.023l0.004,-0.022l0.003,-0.023l0.004,-0.022l0.003,-0.023l0.003,-0.023l0.002,-0.023l0.002,-0.023l0.002,-0.024l0.002,-0.023l0.001,-0.024l0.001,-0.024l0.001,-0.024l0,-0.024l0.001,-0.025l-0.001,-0.024l0,-0.024l-0.001,-0.024l-0.001,-0.024l-0.001,-0.024l-0.002,-0.023l-0.002,-0.024l-0.002,-0.023l-0.002,-0.023l-0.003,-0.023l-0.003,-0.023l-0.004,-0.023l-0.003,-0.022l-0.004,-0.023l-0.004,-0.022l-0.005,-0.022l-0.004,-0.022l-0.003,-0.013l-0.013,-0.053l-0.012,-0.043l-0.012,-0.042l-0.014,-0.043l-0.015,-0.042l-0.016,-0.041l-0.016,-0.041l-0.018,-0.04l-0.019,-0.04l-0.019,-0.04l-0.021,-0.039l-0.022,-0.039l-0.022,-0.038l-0.024,-0.037l-0.024,-0.037l-0.025,-0.037l-0.027,-0.036l-0.027,-0.035l-0.027,-0.034l-0.029,-0.034l-0.03,-0.034l-0.03,-0.032l-0.031,-0.032l-0.032,-0.031l-0.033,-0.031l-0.033,-0.029l-0.034,-0.029l-0.034,-0.028l-0.036,-0.027l-0.036,-0.026l-0.036,-0.025l-0.037,-0.025l-0.038,-0.023l-0.038,-0.023l-0.038,-0.021l-0.039,-0.021l-0.04,-0.019l-0.04,-0.019l-0.041,-0.018l-0.04,-0.017l-0.042,-0.015l-0.042,-0.015l-0.042,-0.014l-0.042,-0.013l-0.044,-0.011l-0.052,-0.013l-0.013,-0.003l-0.022,-0.005l-0.022,-0.004l-0.023,-0.004l-0.022,-0.004l-0.023,-0.004l-0.022,-0.003l-0.023,-0.003l-0.023,-0.003l-0.023,-0.002l-0.023,-0.003l-0.024,-0.001l-0.024,-0.002l-0.023,-0.001l-0.024,-0.001l-0.024,-0.001l-0.024,-0.001l-0.025,0l-0.024,0Z" style="fill:#008450;" />
    </g>
</svg>